<svg width="191" height="32" viewBox="0 0 191 32" fill="none" xmlns="http://www.w3.org/2000/svg">
<path fill-rule="evenodd" clip-rule="evenodd" d="M11.3539 9.36125C11.4005 9.4077 11.4374 9.46287 11.4626 9.52362C11.4878 9.58436 11.5008 9.64948 11.5008 9.71525C11.5008 9.78102 11.4878 9.84614 11.4626 9.90688C11.4374 9.96763 11.4005 10.0228 11.3539 10.0692L5.70692 15.7152L11.3539 21.3612C11.4478 21.4551 11.5005 21.5825 11.5005 21.7152C11.5005 21.848 11.4478 21.9754 11.3539 22.0692C11.26 22.1631 11.1327 22.2159 10.9999 22.2159C10.8671 22.2159 10.7398 22.1631 10.6459 22.0692L4.64592 16.0692C4.59935 16.0228 4.56241 15.9676 4.5372 15.9069C4.512 15.8461 4.49902 15.781 4.49902 15.7152C4.49902 15.6495 4.512 15.5844 4.5372 15.5236C4.56241 15.4629 4.59935 15.4077 4.64592 15.3612L10.6459 9.36125C10.6924 9.31469 10.7475 9.27774 10.8083 9.25254C10.869 9.22733 10.9341 9.21436 10.9999 9.21436C11.0657 9.21436 11.1308 9.22733 11.1916 9.25254C11.2523 9.27774 11.3075 9.31469 11.3539 9.36125Z" fill="#828282"/>
<path d="M49.249 10.8182V21H47.7078V12.3594H47.6481L45.2121 13.9503V12.4787L47.7525 10.8182H49.249Z" fill="#526071"/>
<path d="M86.207 21.1491C85.5905 21.1491 85.0403 20.9917 84.5564 20.6768C84.0758 20.3587 83.698 19.9062 83.4229 19.3196C83.1511 18.7296 83.0152 18.022 83.0152 17.1967C83.0152 16.3714 83.1528 15.6655 83.4279 15.0788C83.7063 14.4922 84.0874 14.0431 84.5713 13.7315C85.0552 13.42 85.6038 13.2642 86.2169 13.2642C86.6909 13.2642 87.072 13.3438 87.3604 13.5028C87.6521 13.6586 87.8774 13.8409 88.0365 14.0497C88.1989 14.2585 88.3249 14.4425 88.4144 14.6016H88.5039V10.8182H89.9904V21H88.5387V19.8118H88.4144C88.3249 19.9742 88.1956 20.1598 88.0266 20.3686C87.8609 20.5774 87.6322 20.7597 87.3405 20.9155C87.0488 21.0713 86.671 21.1491 86.207 21.1491ZM86.5351 19.8814C86.9627 19.8814 87.3239 19.7687 87.6189 19.5433C87.9172 19.3146 88.1426 18.9981 88.2951 18.5938C88.4508 18.1894 88.5287 17.7187 88.5287 17.1818C88.5287 16.6515 88.4525 16.1875 88.3 15.7898C88.1476 15.392 87.9238 15.0821 87.6289 14.8601C87.3339 14.638 86.9693 14.527 86.5351 14.527C86.0877 14.527 85.7148 14.643 85.4165 14.875C85.1182 15.107 84.8928 15.4235 84.7404 15.8246C84.5912 16.2256 84.5167 16.678 84.5167 17.1818C84.5167 17.6922 84.5929 18.1513 84.7453 18.5589C84.8978 18.9666 85.1232 19.2898 85.4215 19.5284C85.7231 19.7637 86.0943 19.8814 86.5351 19.8814ZM94.3343 21.169C93.8504 21.169 93.4129 21.0795 93.0218 20.9006C92.6307 20.7183 92.3208 20.4548 92.0921 20.1101C91.8667 19.7654 91.754 19.3428 91.754 18.8423C91.754 18.4115 91.8369 18.0568 92.0026 17.7784C92.1683 17.5 92.3921 17.2796 92.6738 17.1172C92.9555 16.9548 93.2704 16.8321 93.6184 16.7493C93.9664 16.6664 94.321 16.6035 94.6823 16.5604C95.1397 16.5073 95.5109 16.4643 95.7959 16.4311C96.081 16.3946 96.2881 16.3366 96.4174 16.2571C96.5467 16.1776 96.6113 16.0483 96.6113 15.8693V15.8345C96.6113 15.4003 96.4887 15.0639 96.2434 14.8253C96.0014 14.5866 95.6402 14.4673 95.1596 14.4673C94.6591 14.4673 94.2647 14.5784 93.9763 14.8004C93.6913 15.0192 93.4941 15.2628 93.3847 15.5312L91.9877 15.2131C92.1534 14.7491 92.3954 14.3745 92.7136 14.0895C93.0351 13.8011 93.4046 13.5923 93.8222 13.4631C94.2398 13.3305 94.679 13.2642 95.1397 13.2642C95.4446 13.2642 95.7678 13.3007 96.1092 13.3736C96.4539 13.4432 96.7754 13.5724 97.0736 13.7614C97.3753 13.9503 97.6222 14.2204 97.8144 14.5717C98.0066 14.9197 98.1028 15.3722 98.1028 15.929V21H96.6511V19.956H96.5914C96.4953 20.1482 96.3511 20.3371 96.1589 20.5227C95.9666 20.7083 95.7197 20.8625 95.4181 20.9851C95.1165 21.1077 94.7552 21.169 94.3343 21.169ZM94.6575 19.9759C95.0684 19.9759 95.4198 19.8946 95.7114 19.7322C96.0064 19.5698 96.2301 19.3577 96.3826 19.0959C96.5384 18.8307 96.6163 18.5473 96.6163 18.2457V17.2614C96.5632 17.3144 96.4605 17.3641 96.308 17.4105C96.1589 17.4536 95.9882 17.4917 95.7959 17.5249C95.6037 17.5547 95.4164 17.5829 95.2342 17.6094C95.0519 17.6326 94.8994 17.6525 94.7768 17.669C94.4884 17.7055 94.2249 17.7668 93.9863 17.853C93.751 17.9392 93.562 18.0634 93.4195 18.2259C93.2803 18.3849 93.2107 18.5971 93.2107 18.8622C93.2107 19.2301 93.3466 19.5085 93.6184 19.6974C93.8902 19.883 94.2365 19.9759 94.6575 19.9759ZM100.083 21V13.3636H101.519V14.5767H101.599C101.738 14.1657 101.984 13.8426 102.335 13.6072C102.689 13.3686 103.091 13.2493 103.538 13.2493C103.631 13.2493 103.74 13.2526 103.866 13.2592C103.995 13.2659 104.096 13.2741 104.169 13.2841V14.706C104.11 14.6894 104.004 14.6712 103.851 14.6513C103.699 14.6281 103.546 14.6165 103.394 14.6165C103.042 14.6165 102.729 14.6911 102.454 14.8402C102.182 14.986 101.967 15.1899 101.808 15.4517C101.649 15.7102 101.569 16.0052 101.569 16.3366V21H100.083ZM105.456 21V13.3636H106.942V21H105.456ZM106.206 12.1854C105.948 12.1854 105.726 12.0992 105.54 11.9268C105.358 11.7512 105.267 11.5424 105.267 11.3004C105.267 11.0552 105.358 10.8464 105.54 10.674C105.726 10.4983 105.948 10.4105 106.206 10.4105C106.465 10.4105 106.685 10.4983 106.868 10.674C107.053 10.8464 107.146 11.0552 107.146 11.3004C107.146 11.5424 107.053 11.7512 106.868 11.9268C106.685 12.0992 106.465 12.1854 106.206 12.1854Z" fill="#526071"/>
<path d="M142.575 21.1392C141.952 21.1392 141.392 21.0199 140.895 20.7812C140.401 20.5393 140.007 20.2079 139.712 19.7869C139.417 19.366 139.259 18.8854 139.24 18.3452H140.731C140.767 18.7827 140.961 19.1423 141.313 19.424C141.664 19.7057 142.085 19.8466 142.575 19.8466C142.967 19.8466 143.313 19.7571 143.615 19.5781C143.919 19.3958 144.158 19.1456 144.33 18.8274C144.506 18.5092 144.594 18.1463 144.594 17.7386C144.594 17.3243 144.504 16.9548 144.325 16.63C144.146 16.3052 143.9 16.05 143.585 15.8643C143.273 15.6787 142.915 15.5843 142.511 15.581C142.203 15.581 141.893 15.634 141.581 15.7401C141.27 15.8461 141.018 15.9853 140.825 16.1577L139.419 15.9489L139.99 10.8182H145.588V12.1357H141.268L140.945 14.9844H141.004C141.203 14.7921 141.467 14.6314 141.795 14.5021C142.126 14.3729 142.481 14.3082 142.859 14.3082C143.479 14.3082 144.03 14.4557 144.514 14.7507C145.002 15.0457 145.384 15.4484 145.663 15.9588C145.945 16.4659 146.084 17.0492 146.08 17.7088C146.084 18.3684 145.935 18.9567 145.633 19.4737C145.335 19.9908 144.92 20.3984 144.39 20.6967C143.863 20.9917 143.258 21.1392 142.575 21.1392Z" fill="#526071"/>
<path fill-rule="evenodd" clip-rule="evenodd" d="M178.937 9.36125C178.984 9.31469 179.039 9.27774 179.1 9.25254C179.161 9.22733 179.226 9.21436 179.291 9.21436C179.357 9.21436 179.422 9.22733 179.483 9.25254C179.544 9.27774 179.599 9.31469 179.645 9.36125L185.645 15.3612C185.692 15.4077 185.729 15.4629 185.754 15.5236C185.779 15.5844 185.792 15.6495 185.792 15.7152C185.792 15.781 185.779 15.8461 185.754 15.9069C185.729 15.9676 185.692 16.0228 185.645 16.0692L179.645 22.0692C179.552 22.1631 179.424 22.2159 179.291 22.2159C179.159 22.2159 179.031 22.1631 178.937 22.0692C178.844 21.9754 178.791 21.848 178.791 21.7152C178.791 21.5825 178.844 21.4551 178.937 21.3612L184.584 15.7152L178.937 10.0692C178.891 10.0228 178.854 9.96763 178.829 9.90688C178.804 9.84614 178.791 9.78102 178.791 9.71525C178.791 9.64948 178.804 9.58436 178.829 9.52362C178.854 9.46287 178.891 9.4077 178.937 9.36125Z" fill="#828282"/>
</svg>
